<svg xmlns="http://www.w3.org/2000/svg" viewBox="0 0 44 44" width="256" height="256">
<style>@keyframes calcPress{0%,80%{fill:#455A64}85%{fill:#66BB6A}100%{fill:#455A64}}
.cp{animation:calcPress 2s step-end infinite}</style>
<rect x="6" y="4" width="32" height="36" rx="4" fill="#37474F"/>
<rect x="10" y="8" width="24" height="8" rx="2" fill="#263238"/>
<text x="32" y="14" text-anchor="end" font-family="monospace" font-size="6" fill="#66BB6A">42.0</text>
<rect x="10" y="20" width="5" height="5" rx="1" fill="#455A64"/>
<rect x="17" y="20" width="5" height="5" rx="1" fill="#455A64"/>
<rect class="cp" x="24" y="20" width="5" height="5" rx="1"/>
<rect x="31" y="20" width="5" height="5" rx="1" fill="#FFC107"/>
<rect x="10" y="27" width="5" height="5" rx="1" fill="#455A64"/>
<rect x="17" y="27" width="5" height="5" rx="1" fill="#455A64"/>
<rect x="24" y="27" width="5" height="5" rx="1" fill="#455A64"/>
<rect x="31" y="27" width="5" height="5" rx="1" fill="#FFC107"/>
<rect x="10" y="34" width="12" height="5" rx="1" fill="#455A64"/>
<rect x="24" y="34" width="5" height="5" rx="1" fill="#455A64"/>
<rect x="31" y="34" width="5" height="5" rx="1" fill="#42A5F5"/>
</svg>