<svg xmlns="http://www.w3.org/2000/svg" viewBox="0 0 44 44" width="256" height="256">
<style>
@keyframes blink{0%,100%{opacity:1}50%{opacity:0}}
@keyframes scroll{0%{transform:translateY(0)}100%{transform:translateY(-4px)}}
.cb{animation:blink .9s step-end infinite}
</style>
<rect x="3" y="4" width="38" height="36" rx="5" fill="#263238"/>
<rect x="7" y="10" width="4" height="2" rx=".5" fill="#66BB6A"/>
<rect x="13" y="10" width="16" height="2" rx=".5" fill="#ECEFF1"/>
<rect x="7" y="15" width="4" height="2" rx=".5" fill="#66BB6A"/>
<rect x="13" y="15" width="22" height="2" rx=".5" fill="#FFB74D"/>
<rect x="7" y="20" width="4" height="2" rx=".5" fill="#EF5350"/>
<rect x="13" y="20" width="12" height="2" rx=".5" fill="#EF9A9A"/>
<rect x="7" y="25" width="4" height="2" rx=".5" fill="#66BB6A"/>
<rect x="13" y="25" width="18" height="2" rx=".5" fill="#ECEFF1"/>
<rect x="7" y="30" width="4" height="2" rx=".5" fill="#42A5F5"/>
<rect x="13" y="30" width="10" height="2" rx=".5" fill="#90CAF9"/>
<rect class="cb" x="7" y="35" width="6" height="2" rx=".5" fill="#FFF"/>
</svg>