<svg xmlns="http://www.w3.org/2000/svg" viewBox="0 0 44 44" width="256" height="256"><style>@keyframes dsGlow{0%,100%{opacity:.5}50%{opacity:1}}.dsg{animation:dsGlow 2s ease-in-out infinite}</style><g class="dsg"><rect x="4" y="4" width="36" height="36" rx="4" fill="#263238"/><rect x="6" y="6" width="10" height="6" rx="1" fill="#42A5F5"/><rect x="17" y="6" width="10" height="6" rx="1" fill="#42A5F5"/><rect x="28" y="6" width="10" height="6" rx="1" fill="#42A5F5"/><rect x="6" y="13" width="10" height="6" rx="1" fill="#66BB6A"/><rect x="17" y="13" width="10" height="6" rx="1" fill="#66BB6A"/><rect x="28" y="13" width="10" height="6" rx="1" fill="#66BB6A"/><rect x="6" y="20" width="10" height="6" rx="1" fill="#FFC107"/><rect x="17" y="20" width="10" height="6" rx="1" fill="#FFC107"/><rect x="28" y="20" width="10" height="6" rx="1" fill="#FFC107"/><rect x="6" y="27" width="10" height="6" rx="1" fill="#EF5350"/><rect x="17" y="27" width="10" height="6" rx="1" fill="#EF5350"/><rect x="28" y="27" width="10" height="6" rx="1" fill="#EF5350"/></g></svg>