<svg xmlns="http://www.w3.org/2000/svg" viewBox="0 0 44 44" width="256" height="256">
<style>
@keyframes logScroll{0%{transform:translateY(0)}100%{transform:translateY(-6px)}}
@keyframes logFade{0%{opacity:1}80%{opacity:1}100%{opacity:0}}
.ls{animation:logScroll 3s linear infinite}
</style>
<rect x="5" y="4" width="34" height="36" rx="4" fill="#ECEFF1"/>
<g class="ls">
<rect x="9" y="8" width="3" height="3" rx=".5" fill="#42A5F5"/>
<rect x="14" y="9" width="20" height="2" rx=".5" fill="#90A4AE"/>
<rect x="9" y="14" width="3" height="3" rx=".5" fill="#66BB6A"/>
<rect x="14" y="15" width="16" height="2" rx=".5" fill="#90A4AE"/>
<rect x="9" y="20" width="3" height="3" rx=".5" fill="#FFC107"/>
<rect x="14" y="21" width="22" height="2" rx=".5" fill="#90A4AE"/>
<rect x="9" y="26" width="3" height="3" rx=".5" fill="#EF5350"/>
<rect x="14" y="27" width="14" height="2" rx=".5" fill="#90A4AE"/>
<rect x="9" y="32" width="3" height="3" rx=".5" fill="#42A5F5"/>
<rect x="14" y="33" width="18" height="2" rx=".5" fill="#90A4AE"/>
<rect x="9" y="38" width="3" height="3" rx=".5" fill="#AB47BC"/>
<rect x="14" y="39" width="12" height="2" rx=".5" fill="#90A4AE"/>
</g>
</svg>