<svg xmlns="http://www.w3.org/2000/svg" viewBox="0 0 44 44" width="256" height="256">
<style>@keyframes nnFire{0%,100%{opacity:.3}50%{opacity:1}}
.n1{animation:nnFire 1.5s ease-in-out infinite}
.n2{animation:nnFire 1.5s ease-in-out .3s infinite}
.n3{animation:nnFire 1.5s ease-in-out .6s infinite}</style>
<circle class="n1" cx="8" cy="12" r="4" fill="#42A5F5"/>
<circle class="n1" cx="8" cy="22" r="4" fill="#42A5F5"/>
<circle class="n1" cx="8" cy="32" r="4" fill="#42A5F5"/>
<circle class="n2" cx="22" cy="10" r="4" fill="#FFC107"/>
<circle class="n2" cx="22" cy="22" r="4" fill="#FFC107"/>
<circle class="n2" cx="22" cy="34" r="4" fill="#FFC107"/>
<circle class="n3" cx="36" cy="16" r="4" fill="#66BB6A"/>
<circle class="n3" cx="36" cy="28" r="4" fill="#66BB6A"/>
<line x1="12" y1="12" x2="18" y2="10" stroke="#90A4AE" stroke-width=".8"/>
<line x1="12" y1="12" x2="18" y2="22" stroke="#90A4AE" stroke-width=".8"/>
<line x1="12" y1="22" x2="18" y2="10" stroke="#90A4AE" stroke-width=".8"/>
<line x1="12" y1="22" x2="18" y2="22" stroke="#90A4AE" stroke-width=".8"/>
<line x1="12" y1="22" x2="18" y2="34" stroke="#90A4AE" stroke-width=".8"/>
<line x1="12" y1="32" x2="18" y2="22" stroke="#90A4AE" stroke-width=".8"/>
<line x1="12" y1="32" x2="18" y2="34" stroke="#90A4AE" stroke-width=".8"/>
<line x1="26" y1="10" x2="32" y2="16" stroke="#90A4AE" stroke-width=".8"/>
<line x1="26" y1="22" x2="32" y2="16" stroke="#90A4AE" stroke-width=".8"/>
<line x1="26" y1="22" x2="32" y2="28" stroke="#90A4AE" stroke-width=".8"/>
<line x1="26" y1="34" x2="32" y2="28" stroke="#90A4AE" stroke-width=".8"/>
</svg>