<svg xmlns="http://www.w3.org/2000/svg" viewBox="0 0 44 44" width="256" height="256">
<style>
@keyframes rocket{0%,85%{transform:translate(0,0)}90%{transform:translate(1px,-3px)}100%{transform:translate(0,0)}}
@keyframes flame{0%,100%{opacity:.8;transform:scaleY(1)}50%{opacity:1;transform:scaleY(1.3)}}
.rk{animation:rocket 3s ease-in-out infinite}
.fl{animation:flame .3s ease-in-out infinite;transform-origin:22px 38px}
</style>
<g class="rk">
<path d="M22 4 Q16 14 16 24 L28 24 Q28 14 22 4Z" fill="#42A5F5"/>
<path d="M22 4 Q19 14 19 24 L22 24 Q22 14 22 4Z" fill="#64B5F6"/>
<rect x="17" y="24" width="10" height="6" rx="1" fill="#EF5350"/>
<circle cx="22" cy="16" r="3" fill="#FFF"/>
<circle cx="22" cy="16" r="1.5" fill="#42A5F5"/>
<path d="M16 22 L12 28 L16 26Z" fill="#FFC107"/>
<path d="M28 22 L32 28 L28 26Z" fill="#FFC107"/>
</g>
<g class="fl">
<path d="M19 30 L22 38 L25 30" fill="#FFC107"/>
<path d="M20 30 L22 36 L24 30" fill="#FF9800"/>
</g>
</svg>