<svg xmlns="http://www.w3.org/2000/svg" viewBox="0 0 44 44" width="256" height="256">
<style>
@keyframes gearSpin{0%{transform:rotate(0)}100%{transform:rotate(360deg)}}
.gs{animation:gearSpin 4s linear infinite;transform-origin:22px 22px}
</style>
<g class="gs">
<circle cx="22" cy="22" r="14" fill="#78909C"/>
<rect x="19" y="2" width="6" height="8" rx="2" fill="#78909C"/>
<rect x="19" y="34" width="6" height="8" rx="2" fill="#78909C"/>
<rect x="2" y="19" width="8" height="6" rx="2" fill="#78909C"/>
<rect x="34" y="19" width="8" height="6" rx="2" fill="#78909C"/>
<rect x="6" y="6" width="7" height="6" rx="2" fill="#78909C" transform="rotate(45 9.5 9)"/>
<rect x="31" y="6" width="7" height="6" rx="2" fill="#78909C" transform="rotate(45 34.5 9)"/>
<rect x="6" y="32" width="7" height="6" rx="2" fill="#78909C" transform="rotate(45 9.5 35)"/>
<rect x="31" y="32" width="7" height="6" rx="2" fill="#78909C" transform="rotate(45 34.5 35)"/>
</g>
<circle cx="22" cy="22" r="7" fill="#FFF"/>
<circle cx="22" cy="22" r="4" fill="#78909C"/>
</svg>